/* XPM */
static char *alembic_tagger[] = {
/* columns rows colors chars-per-pixel */
"33 33 157 2",
"   c black",
".  c #060606",
"X  c gray5",
"o  c #0E0E0E",
"O  c gray6",
"+  c gray7",
"@  c #131313",
"#  c gray8",
"$  c #151515",
"%  c #161616",
"&  c gray9",
"*  c #181818",
"=  c gray10",
"-  c gray11",
";  c #1D1D1D",
":  c gray12",
">  c #202020",
",  c gray13",
"<  c #222222",
"1  c #232323",
"2  c gray14",
"3  c #252525",
"4  c gray15",
"5  c #272727",
"6  c #282828",
"7  c gray16",
"8  c #2A2A2A",
"9  c gray17",
"0  c #2C2C2C",
"q  c #2D2D2D",
"w  c gray18",
"e  c #2F2F2F",
"r  c gray19",
"t  c #313131",
"y  c #323232",
"u  c gray20",
"i  c #343434",
"p  c #353535",
"a  c gray21",
"s  c #373737",
"d  c gray22",
"f  c #393939",
"g  c #3A3A3A",
"h  c gray23",
"j  c #3C3C3C",
"k  c gray24",
"l  c #3E3E3E",
"z  c #3F3F3F",
"x  c gray25",
"c  c #414141",
"v  c gray26",
"b  c #434343",
"n  c #444444",
"m  c gray27",
"M  c #464646",
"N  c gray28",
"B  c #484848",
"V  c gray29",
"C  c #4C4C4C",
"Z  c gray30",
"A  c #4E4E4E",
"S  c gray31",
"D  c #505050",
"F  c #515151",
"G  c gray32",
"H  c #535353",
"J  c gray33",
"K  c #565656",
"L  c gray34",
"P  c #585858",
"I  c gray35",
"U  c #5A5A5A",
"Y  c gray36",
"T  c #5D5D5D",
"R  c #606060",
"E  c gray38",
"W  c #626262",
"Q  c gray39",
"!  c #656565",
"~  c #676767",
"^  c DimGray",
"/  c #6A6A6A",
"(  c gray42",
")  c #6C6C6C",
"_  c #6D6D6D",
"`  c gray43",
"'  c gray44",
"]  c #727272",
"[  c gray45",
"{  c gray46",
"}  c #767676",
"|  c #777777",
" . c #797979",
".. c gray48",
"X. c #7B7B7B",
"o. c #7C7C7C",
"O. c gray49",
"+. c #7E7E7E",
"@. c #7F7F7F",
"#. c #808080",
"$. c #818181",
"%. c gray51",
"&. c #838383",
"*. c #848484",
"=. c gray52",
"-. c #868686",
";. c gray53",
":. c #888888",
">. c #898989",
",. c #8B8B8B",
"<. c gray55",
"1. c #8D8D8D",
"2. c #8E8E8E",
"3. c gray56",
"4. c #909090",
"5. c gray57",
"6. c #929292",
"7. c #939393",
"8. c gray58",
"9. c #959595",
"0. c gray59",
"q. c #979797",
"w. c #989898",
"e. c gray60",
"r. c #9A9A9A",
"t. c #9B9B9B",
"y. c gray61",
"u. c #9D9D9D",
"i. c gray62",
"p. c #9F9F9F",
"a. c #A0A0A0",
"s. c gray63",
"d. c #A2A2A2",
"f. c gray64",
"g. c #A4A4A4",
"h. c #A5A5A5",
"j. c gray65",
"k. c #A7A7A7",
"l. c gray66",
"z. c #A9A9A9",
"x. c #AAAAAA",
"c. c gray67",
"v. c #ACACAC",
"b. c gray68",
"n. c #AEAEAE",
"m. c #AFAFAF",
"M. c #B1B1B1",
"N. c #B2B2B2",
"B. c gray70",
"V. c gray71",
"C. c #B6B6B6",
"Z. c #B7B7B7",
"A. c #B9B9B9",
"S. c #BCBCBC",
"D. c gray74",
"F. c gray75",
"G. c #C1C1C1",
/* pixels */
"i i i i i i i i i i i i i i i i i i i i i i i i i i i i i i i i i ",
"i i i i i i i i i i i i u u 7 7 7 7 e i u u i i i i i i i i i i i ",
"i i i i i i i i i i u 5 < 7 f v v z i 7 < 7 u u i i i i i i i i i ",
"i i i i i i i i i 5 < n ^ &.7.0.e.0.3.o.W z < 5 i i i i i i i i i ",
"i i i i i i i u < f o.d.c.k.y.e.e.y.d.k.c.e.{ z ; u i i i i i i i ",
"i i i i i i u < D d.b.e.7.0.0.0.0.0.0.0.0.y.c.d.Y < e i i i i i i ",
"i i i i i i < D c.d.7.0.0.0.0.0.0.0.0.0.0.0.7.y.b.[ 5 7 f i i i i ",
"i i i i i 7 f y.d.0.0.0.0.0.0.0.0.0.0.0.0.0.e.0.e.b.[ < e i i i i ",
"i i i i u < _ b.0.0.0.0.0.0.0.0.0.0.0.0.0.y.d.k.y.e.b.W ; u u i i ",
"i i i i e u ,.d.0.0.0.0.0.0.0.0.0.0.0.0.d.o.v P 0.d.y.d.v 5 i i i ",
"i i i i 5 v e.e.0.0.0.0.0.0.0.0.0.0.0.0.c.D   . 7 7.y.c...< i i i ",
"i i u u 7 V y.e.0.0.0.0.0.0.0.0.0.0.0.0.e.7.^ Y D o.d.e.y.v 7 i i ",
"i i 7 V z i 0.y.0.0.0.0.0.0.0.0.0.0.0.0.0.e.c.c.c.e.7.0.c.! < u i ",
"i i u Y z 5 &.k.0.0.0.0.0.0.0.0.0.0.0.0.e.y.e.e.0.0.0.0.k...5 u i ",
"i u f L u < L c.0.0.0.0.0.0.0.0.0.0.y.c.y.0.0.c.d.0.0.0.y.,.i e i ",
"i e n L e u < { M.e.0.0.0.0.0.0.e.c.7.W f e i L ,.k.0.e.y.7.z 7 i ",
"i e V W e e % < { c.c.e.y.e.d.c.d.^ 5 + i n e O 5 o.k.7.e.0.z 7 i ",
"i 7 V [ < u _ v = D ..7.e.0.3.[ v O i ;.b.V.k.L % i 0.y.y.0.z 7 i ",
"i e n o.5 o.e.v 7 5 5 u f f i 5 % v c.V.{ L 7.M.V + _ c.y.3.i e i ",
"u e u o.o.0.e 5 i u < u f 7 ; e u 7.V.Y = O < k.o.O P c.k.o.7 u i ",
"i i < _ G.{ < i u 5 Y d.b.k.D + D M.;.< 7 v Y b._ O ! c.c.^ < i i ",
"i i 5 A M.&.7 u < W D.3.D ..c.e D V...< e D 7.{ 7 < ;.d.d.n 5 i i ",
"i i e 7 3.c.z = f k.7.7 = = ;.D v k.y.v % 5 5 = + ! k.c.o.5 u u i ",
"i i i < A D.{ + n V.^ ; i e v z 5 ,.V.7.A u 7 i ^ d.y.k.V 5 i u i ",
"i i i u < { G.D 5 e.3.7 e i e e 5 v y.V.c.3.;.0.k.e.b.^ < u u i i ",
"i i i i 7 e 0.A.D _ M.Y % e i u i < v &.7.e.d.y.e.b.o.5 e u i i i ",
"i i i i i 5 e 0.A.3.y.d.W e ; < 5 5 % % z &.y.y.b.o.5 7 i i i i i ",
"i i i i u i 5 7 o.b.d.e.k.3._ L V A P ^ ;.0.k.k._ 5 7 i i i i i i ",
"i i i i i i i 7 < D ,.k.c.c.b.c.d.k.c.M.M.k.;.A < e i i i i i i i ",
"i i i i i i i i u < e A _ ;.0.e.d.y.0.,.[ D 7 < i i i i i i i i i ",
"i i i i i i i i i i u < < e z n A n v u 5 < u i i i i i i i i i i ",
"i i i i i i i i u u u u u u 7 5 5 7 7 e u u u i i i i i i i i i i ",
"i i i i i i i i i i i i i i i i i i i i i i i i i i i i i i i i i "
};
