/* XPM */
static char *brent[] = {
/* columns rows colors chars-per-pixel */
"33 33 200 2",
"   c black",
".  c #010101",
"X  c #020202",
"o  c gray1",
"O  c #040404",
"+  c gray2",
"@  c #060606",
"#  c #070707",
"$  c gray3",
"%  c #090909",
"&  c gray4",
"*  c #0C0C0C",
"=  c gray5",
"-  c #0E0E0E",
";  c gray6",
":  c #101010",
">  c #131313",
",  c gray8",
"<  c #151515",
"1  c #161616",
"2  c gray9",
"3  c #181818",
"4  c #191919",
"5  c #1B1B1B",
"6  c gray11",
"7  c #1D1D1D",
"8  c #1E1E1E",
"9  c gray12",
"0  c #202020",
"q  c gray13",
"w  c #222222",
"e  c #232323",
"r  c gray14",
"t  c #252525",
"y  c gray15",
"u  c #272727",
"i  c #282828",
"p  c gray16",
"a  c #2A2A2A",
"s  c gray17",
"d  c #2C2C2C",
"f  c gray18",
"g  c #2F2F2F",
"h  c gray19",
"j  c #313131",
"k  c #323232",
"l  c gray20",
"z  c #343434",
"x  c #353535",
"c  c gray21",
"v  c #373737",
"b  c gray22",
"n  c #393939",
"m  c #3A3A3A",
"M  c gray23",
"N  c #3C3C3C",
"B  c gray24",
"V  c #3E3E3E",
"C  c #3F3F3F",
"Z  c gray25",
"A  c #414141",
"S  c gray26",
"D  c #434343",
"F  c #444444",
"G  c gray27",
"H  c #464646",
"J  c gray28",
"K  c #484848",
"L  c #494949",
"P  c gray29",
"I  c #4B4B4B",
"U  c #4C4C4C",
"Y  c gray30",
"T  c #4E4E4E",
"R  c gray31",
"E  c #505050",
"W  c #515151",
"Q  c gray32",
"!  c #535353",
"~  c gray33",
"^  c #555555",
"/  c #565656",
"(  c gray34",
")  c #585858",
"_  c gray35",
"`  c #5A5A5A",
"'  c #5B5B5B",
"]  c gray36",
"[  c #5D5D5D",
"{  c gray37",
"}  c #5F5F5F",
"|  c #606060",
" . c gray38",
".. c #626262",
"X. c gray39",
"o. c #646464",
"O. c #656565",
"+. c gray40",
"@. c #676767",
"#. c #686868",
"$. c DimGray",
"%. c #6A6A6A",
"&. c gray42",
"*. c #6C6C6C",
"=. c #6D6D6D",
"-. c gray43",
";. c #6F6F6F",
":. c gray44",
">. c #717171",
",. c #727272",
"<. c gray45",
"1. c #747474",
"2. c gray46",
"3. c #767676",
"4. c #777777",
"5. c gray47",
"6. c #797979",
"7. c gray48",
"8. c #7B7B7B",
"9. c #7C7C7C",
"0. c gray49",
"q. c #7E7E7E",
"w. c #7F7F7F",
"e. c #808080",
"r. c #818181",
"t. c gray51",
"y. c #838383",
"u. c #848484",
"i. c gray52",
"p. c #868686",
"a. c gray53",
"s. c #888888",
"d. c #898989",
"f. c gray54",
"g. c #8B8B8B",
"h. c gray55",
"j. c #8D8D8D",
"k. c #8E8E8E",
"l. c gray56",
"z. c #909090",
"x. c gray57",
"c. c #929292",
"v. c #939393",
"b. c gray58",
"n. c #959595",
"m. c gray59",
"M. c #979797",
"N. c #989898",
"B. c gray60",
"V. c #9A9A9A",
"C. c #9B9B9B",
"Z. c gray61",
"A. c #9D9D9D",
"S. c gray62",
"D. c #9F9F9F",
"F. c #A0A0A0",
"G. c gray63",
"H. c #A2A2A2",
"J. c gray64",
"K. c #A4A4A4",
"L. c #A5A5A5",
"P. c gray65",
"I. c #A7A7A7",
"U. c gray66",
"Y. c #A9A9A9",
"T. c #AAAAAA",
"R. c gray67",
"E. c #ACACAC",
"W. c gray68",
"Q. c #AEAEAE",
"!. c #AFAFAF",
"~. c gray69",
"^. c #B1B1B1",
"/. c #B2B2B2",
"(. c gray70",
"). c #B4B4B4",
"_. c #B7B7B7",
"`. c gray72",
"'. c #B9B9B9",
"]. c #BBBBBB",
"[. c #BCBCBC",
"{. c gray74",
"}. c gray75",
"|. c #C0C0C0",
" X c gray76",
".X c gray78",
"XX c #CACACA",
"oX c #CBCBCB",
"OX c gray82",
"+X c gray85",
"@X c #E2E2E2",
"#X c #E4E4E4",
"$X c #E9E9E9",
"%X c gray92",
"&X c #F3F3F3",
"*X c #F4F4F4",
"=X c #F9F9F9",
"-X c #FDFDFD",
";X c #FEFEFE",
":X c gray100",
/* pixels */
"5.3.3.3.3.,.;.;.$.5.h.S.R 2 w y O l 9.c.@.Z f X.5.$.$.;.;.@.@.@.X.",
",.;.;.$.$.;.5.$.$.d.,.w . . > 5 w E h.5.` Z s b 3.@.$.@.X.@.$.$.$.",
"$.;.,.,.5.u.@.} 3.X.O . ; > w f ` E $.;.B Z G 5 ,.{.L.L.J.J.J.J.J.",
"U.!.~._.|.n.` X.} 9 O x E } X.@.d.h.$.E l s B y l $.` ^ ^ R R G Z ",
"E E E R P ^ @.^ w f $.r.h.V.V.c.S.!.h.@.Z s ; > 9 2 9 5 9 y y 5 9 ",
"5 2 w 5 f E R 9 y ,.n.S.J.U.!.!.S.J.V.d.X.G 2 . > s b b x b x l x ",
"b x B B P B w 5 $.J.L.~.~.!.!.U.J.c.h.u.;.} l O O > f B Z Z b x x ",
"B b B G Z w b X.J.L.U.!.L.J.V.n.c.u.5.3.;.@.R 9 $ O s G Z Z B x b ",
"Z Z G G l l R 3.U.S.S.V.n.n.h.h.d.9.9.3.;.X.` x ; . y G Z Z Z Z B ",
"Z Z G P x x B 5.J.n.n.n.V.J.S.V.L.L.V.r.,.@.` Z $ . 9 R R G P Z B ",
"G P P E Z l Z 9.J.V.V.U._.!.U.U.U.U.J.n.c.r.` E 2 . 9 R E E E R R ",
"R E E } b y B 5.V.S.~.|.].!.V.h.h.h.@.b ^ $.E ` s . f ` ` ^ ` E E ",
"E ^ E } E f f h.J.!.V.X.^ $.,.3.$.Z ; f R B b ^ B > B ` ^ ^ ^ E ^ ",
"E ` ` E X.E y c.J.r.X.P 9 5 P c.} $ 5 s l b B } ^ l x R ^ ` ^ ^ E ",
"E ^ ` ^ ` ;.G V.S.` E l w 2 B |.u.2 Z B l b ` $.R l B ` ` ^ ` ^ E ",
"E ` ` ` E 3.,.n.U.r.$.R B B ,.|.V.E ` X.` } ;.X.P w x X.X.` } ` ^ ",
"^ ` ` ` E 9.d.u.~.!.n.3.;.u.J.~.c.} 3.u.5.r.9.@.Z f E X.X.@.X.} ` ",
"` } } } } $.u.3.U.U.L.J.!.L.n._.L.9.X.$.d.h.r.;.P Z X.@.X.@.@.} } ",
"X.} } @.X.^ V.V.V.U._.~.u.3.~.!.L.9.;.Z ^ 3.;.X.Z Z @.$.@.;.$.@.X.",
"} @.@.@.$.^ V.~.c.S.S.r.B @.V.c.u.E x P Z G ` E P } ;.@.$.$.;.$.X.",
"} X.@.@.@.` 5.!.d.d.u.G P V.;.E ` f 9 ^ ` l Z ^ R $.;.@.@.$.;.@.X.",
"` X.@.X.@.X.} ,.u.u.;.P $.J.c.` b l G G w B E E E @.$.$.@.$.$.@.@.",
"` X.X.@.X.X.} ` r.r.$.` G P @.3.@.^ R 2 f $.@.P ` @.X.X.@.@.$.@.} ",
"^ @.X.} X.} } ` 3.r.5.$.3.;.E ` } P l Z X.} R E X.$.} ` X.X.X.X.E ",
"E ^ ^ } X.X.E ` $.u.r.;.9.J.n.5.$.E E ^ ^ ^ E E B B R $.} @.;.` X.",
"9.;.X.5.@.;.5.9.$.5.c.3.9.u.9.3.@.^ P R ` E R x ;.n.c.B O 9 5.V.c.",
"$.$.@.5.} ` 9.;.3.J.d.d.r.d.5.E G G E @.` P R s 9._.c.; ; O } L.h.",
"d.n.u.c.d.r.S.;._.OX5.u.u.c.c.u.r.5.;.@.P P E w x 3.$.` r.^ ^ r.5.",
"^ ,.V.u.R } $.` $XoXr.u.r.u.S.J.V.5.@.R E R E 9 s r.3.y O . w 5.,.",
"w G L.$.. . x h.:XoXr.h.r.3.5.r.3.} ^ E E G ^ . y J.u.5 E b y B Z ",
"B Z 3.^ P V.#X:X:X$Xu.h.d.5.$.X.} ` ` ^ E E P . X._.u.y ~.;.. h.].",
"5 } !.+X:X:X:X:X=X:X!.5.V.c.r.$.X.} ` ` ^ ^ s 5 ~.S.d.n.].,.. ;.{.",
"L.&X:X:X:X:X=X:X&X:X@X3.d.n.d.5.;.@.@.X.` ` 9 ,..Xu.h.U.U.].V.5.L."
};
