/* XPM */
static char * checkin_xpm[] = {
"33 33 175 2",
"  	c #3C3C3C",
". 	c #252525",
"+ 	c #3A3A3A",
"@ 	c #414141",
"# 	c #424242",
"$ 	c #404040",
"% 	c #2A2A2A",
"& 	c #313131",
"* 	c #444444",
"= 	c #484848",
"- 	c #4A4A4A",
"; 	c #4B4B4B",
"> 	c #4C4C4C",
", 	c #4D4D4D",
"' 	c #383838",
") 	c #4E4E4E",
"! 	c #515151",
"~ 	c #545454",
"{ 	c #555555",
"] 	c #575757",
"^ 	c #565656",
"/ 	c #525252",
"( 	c #4F4F4F",
"_ 	c #1C1C1C",
": 	c #474747",
"< 	c #5A5A5A",
"[ 	c #5D5D5D",
"} 	c #5F5F5F",
"| 	c #595959",
"1 	c #D7D7D7",
"2 	c #686868",
"3 	c #5E5E5E",
"4 	c #5C5C5C",
"5 	c #494949",
"6 	c #2D2D2D",
"7 	c #505050",
"8 	c #5B5B5B",
"9 	c #626262",
"0 	c #656565",
"a 	c #DADADA",
"b 	c #FEFEFE",
"c 	c #FFFFFF",
"d 	c #6D6D6D",
"e 	c #666666",
"f 	c #646464",
"g 	c #616161",
"h 	c #454545",
"i 	c #636363",
"j 	c #676767",
"k 	c #6A6A6A",
"l 	c #E0E0E0",
"m 	c #727272",
"n 	c #6C6C6C",
"o 	c #6F6F6F",
"p 	c #E4E4E4",
"q 	c #767676",
"r 	c #717171",
"s 	c #E7E7E7",
"t 	c #7C7C7C",
"u 	c #737373",
"v 	c #6E6E6E",
"w 	c #696969",
"x 	c #E8E8E8",
"y 	c #E9E9E9",
"z 	c #DDDDDD",
"A 	c #818181",
"B 	c #757575",
"C 	c #707070",
"D 	c #6B6B6B",
"E 	c #747474",
"F 	c #A0A0A0",
"G 	c #919191",
"H 	c #E2E2E2",
"I 	c #868686",
"J 	c #797979",
"K 	c #929292",
"L 	c #AAAAAA",
"M 	c #A6A6A6",
"N 	c #E5E5E5",
"O 	c #A4A4A4",
"P 	c #A5A5A5",
"Q 	c #F9F9F9",
"R 	c #7D7D7D",
"S 	c #606060",
"T 	c #787878",
"U 	c #7E7E7E",
"V 	c #969696",
"W 	c #B0B0B0",
"X 	c #B1B1B1",
"Y 	c #B8B8B8",
"Z 	c #B4B4B4",
"` 	c #B5B5B5",
" .	c #F6F6F6",
"..	c #828282",
"+.	c #7B7B7B",
"@.	c #848484",
"#.	c #9B9B9B",
"$.	c #AEAEAE",
"%.	c #B3B3B3",
"&.	c #BFBFBF",
"*.	c #C7C7C7",
"=.	c #EDEDED",
"-.	c #C3C3C3",
";.	c #C4C4C4",
">.	c #ABABAB",
",.	c #F7F7F7",
"'.	c #878787",
").	c #7F7F7F",
"!.	c #777777",
"~.	c #808080",
"{.	c #898989",
"].	c #BEBEBE",
"^.	c #CBCBCB",
"/.	c #D6D6D6",
"(.	c #F0F0F0",
"_.	c #D2D2D2",
":.	c #D1D1D1",
"<.	c #B6B6B6",
"[.	c #A7A7A7",
"}.	c #DCDCDC",
"|.	c #909090",
"1.	c #838383",
"2.	c #7A7A7A",
"3.	c #9C9C9C",
"4.	c #B7B7B7",
"5.	c #C6C6C6",
"6.	c #D4D4D4",
"7.	c #F3F3F3",
"8.	c #DBDBDB",
"9.	c #CCCCCC",
"0.	c #AFAFAF",
"a.	c #888888",
"b.	c #A1A1A1",
"c.	c #BCBCBC",
"d.	c #F4F4F4",
"e.	c #E1E1E1",
"f.	c #9A9A9A",
"g.	c #8E8E8E",
"h.	c #8B8B8B",
"i.	c #989898",
"j.	c #CDCDCD",
"k.	c #A8A8A8",
"l.	c #999999",
"m.	c #DFDFDF",
"n.	c #A9A9A9",
"o.	c #C8C8C8",
"p.	c #DEDEDE",
"q.	c #F1F1F1",
"r.	c #D8D8D8",
"s.	c #D9D9D9",
"t.	c #C1C1C1",
"u.	c #8C8C8C",
"v.	c #A3A3A3",
"w.	c #ADADAD",
"x.	c #D5D5D5",
"y.	c #EFEFEF",
"z.	c #CFCFCF",
"A.	c #8F8F8F",
"B.	c #959595",
"C.	c #BDBDBD",
"D.	c #C0C0C0",
"E.	c #A2A2A2",
"F.	c #EBEBEB",
"G.	c #BABABA",
"H.	c #979797",
"I.	c #ACACAC",
"J.	c #ECECEC",
"K.	c #BBBBBB",
"L.	c #9D9D9D",
"M.	c #C2C2C2",
"N.	c #C9C9C9",
"O.	c #CACACA",
"P.	c #B9B9B9",
"Q.	c #CECECE",
"R.	c #D0D0D0",
"                                                                  ",
"                                                                  ",
"                                                                  ",
"                        . + @ # # @ $   %                         ",
"                    & * = - ; > , , > - = * '                     ",
"                  * - ) ! ~ { ] { ] ^ { / ( ; * _                 ",
"                : ) / ] < [ } | 1 2 } 3 4 < ^ ! 5 6               ",
"              : 7 { 8 } 9 0 3 a b c d e f g 3 < ~ ;               ",
"            h 7 ^ [ i j k g l c b c c m n 2 0 9 4 { ;             ",
"            ( ^ 3 0 k o 0 p c c c c c c q r n 2 i [ ~ 5           ",
"          > { 3 e n r 2 s c c c c c c c b t u o k f 4 ~           ",
"          ~ [ e v u w x c b c y c c z b b b A B C D f 4 /         ",
"        ~ 4 f d E r y c b c F l c c G H b b b I q r w 9 |         ",
"        < i D u J K c b c L M N c c O P H b c Q R q o j S         ",
"        g 2 C T U V c c W X Y y c c Z ` L H b  ...+.u n 0         ",
"        0 d E t @.#.c $.%.&.*.=.c c -.;.Y >.H ,.'.).!.C w         ",
"        w C !.~.{.M L W ].^./.(.c c _.:.;.<.[.}.|.1.+.u D         ",
"        D u 2.1.G 3.L 4.5.6.H 7.c c z 8.9.].0.F V a.R q d         ",
"        d E R '.V b.$.c.9.a x d.c c e.e._.-.%.M f.g.~.!.v         ",
"        E q ~.h.i.O X ].j.}.x d.c c e.H 6.;.<.k.3.|...!.v         ",
"        {.!.A g.l.O X ].9.a N 7.c c m.m._.;.<.n.3.K @.!.T         ",
"        |.B A g.l.O W c.o.6.p.q.c c r.s.j.t.Z k.3.G 1.q G         ",
"          {.).u.i.v.w.Y -.j.x.y.c c z.:.*.c.X M f.A.).q           ",
"          A.R I B.F L %.C.5.^.=.c c 5.o.D.<.w.E.i.u.t l.          ",
"            V 1.G 3.M 0.4.&.;.F.c c ].t.G.X n.F V {.H.            ",
"            g.f.h.l.O I.Z c.D.J.c c K.C.<.0.k.F H.3.L.            ",
"              K P i.v.I.Z c.M.*.N.o.M.C.<.0.n.E.I.v.              ",
"                #.>.>.w.<.].;.o.N.o.-.].4.$.w.Z M                 ",
"                    X c.c.D.5.O.9.O.;.].G.G.` >.                  ",
"                      P.M.N.Q.R.R.R.j.*.t.P.                      ",
"                              Q.z.j.O.                            ",
"                                                                  ",
"                                                                  "};
