/* XPM */
static char * maya_issue_submit_xpm[] = {
"33 33 25 1",
" 	c None",
".	c #343434",
"+	c #402A2A",
"@	c #4F1E1E",
"#	c #5A1515",
"$	c #630F0F",
"%	c #670B0B",
"&	c #690A0A",
"*	c #4B2121",
"=	c #611010",
"-	c #6A0A0A",
";	c #472525",
">	c #541A1A",
",	c #660C0C",
"'	c #462525",
")	c #3C2D2D",
"!	c #363232",
"~	c #343333",
"{	c #353333",
"]	c #640E0E",
"^	c #4A2222",
"/	c #4C2020",
"(	c #620F0F",
"_	c #4B2020",
":	c #333333",
"...........+@#$%&%$#@+...........",
".........*=-----------=*.........",
".......;$---------------$;.......",
"......>----,>')!~!)'>,---->......",
"....{#---]^~.........~^]---#{....",
"....#--->!.............-----#....",
"...>---/...............------>...",
"..;---/...............--------;..",
"..$-->...............-----.>--(..",
".*--]!...............-----.!]--*.",
".=--^...............-----...^--=.",
"+--,~..............-----....~,--+",
"@-->..............-----......>--@",
"#--'.............-----.......'--#",
"$--).............-----.......)--$",
"%--!............-----........!--%",
"&--~...........-----.........~--&",
"%--!..........-----..........!--%",
"$--).........-----...........)--$",
"#--'........-----............'--#",
"@-->........-----............>--@",
"+--,~......-----............~,--+",
".=--^.....-----.............^--=.",
".*--]!...-----.............!]--_.",
"..$-->..-----..............>--(..",
"..;---/.-----............./---;..",
"...>--------............./--->...",
"....#------............!>---#....",
"....{#----^~.........~^]---#{....",
"......>----,>')!~!)'>,---->......",
".......;$---------------$;.......",
"........:_=-----------=*.........",
"...........+@#$%&%$#@+..........."};
