/* XPM */
static char *reload[] = {
/* columns rows colors chars-per-pixel */
"33 33 62 1",
"  c gray19",
". c #313131",
"X c #323232",
"o c gray20",
"O c #343434",
"+ c #353535",
"@ c gray21",
"# c #373737",
"$ c gray22",
"% c #39393A",
"& c #3A3A3A",
"* c gray23",
"= c #3C3C3C",
"- c #3C3C3D",
"; c gray24",
": c #3E3D3D",
"> c #3D3D3E",
", c #3E3E3E",
"< c #3F3F40",
"1 c #414141",
"2 c #414142",
"3 c gray26",
"4 c #444444",
"5 c gray27",
"6 c #464647",
"7 c #474647",
"8 c #474748",
"9 c #484849",
"0 c #48484A",
"q c #49494A",
"w c #4A4A4B",
"e c #4B4B4C",
"r c #4D4C4D",
"t c #4D4D4F",
"y c #4E4E4F",
"u c #4F4F51",
"i c #505051",
"p c #505152",
"a c #535354",
"s c #535455",
"d c #565658",
"f c #575759",
"g c #58585A",
"h c #58595A",
"j c #59595A",
"k c #5A595B",
"l c #5A5B5C",
"z c #5B5B5C",
"x c #5E5F60",
"c c #696A6B",
"v c #6A6A6B",
"b c #6C6C6E",
"n c #6C6D6F",
"m c #6F6F71",
"M c #707173",
"N c #737376",
"B c #767679",
"V c #76777A",
"C c #78787B",
"Z c #7B7C7F",
"A c #7C7D80",
"S c #818285",
/* pixels */
"ooooooooooooooooooooooooooooooooo",
"ooooooooooooooooooooooooooooooooo",
"ooooooooooooooooooooooooooooooooo",
"ooooooooooooooooooooooooooooooooo",
"ooooooooooooo%qgffq%ooOoooooooooo",
"oooooooooo#aBSSSSSSSVi#Oooooooooo",
"oooooooooqBSSSSSSSSSSSZqooooooooo",
"oooooooofSSSSSSSSSSSSSSSzoooooooo",
"ooooooogSSSSSmi5>5smSSSSScOoooooo",
"oooooooVSSSN5oOOOooo3NSSSAqOooooo",
"ooooooo>CSbOoooooooooObSSSZ#ooooo",
"oooooooo>bOOoooooooooO#MSSSiooooo",
"ooooo>uOOoooooooooooooo3SSSVooooo",
"oooo>gguOooooooooooooooocSSS=oooo",
"ooo>ggggyOooooooooooooooySSSioooo",
"oo>ggggggiOooooooooooooo<SSSloooo",
"o%zgggggkgeoooooooooooydfSSSbgg%o",
"oooo5ggg#oOooooooooooo3ZSSSSSSzOo",
"oooo3ggg:Oooooooooooooo3ZSSSSzooo",
"ooOO%gggqOoooooooooooooo3ZSSzoooo",
"ooooOffgfOOoooooooooooooo3Zzooooo",
"ooooO5gggyooooooooooooo3oo=oooooo",
"oooooOdggg7oOooOoooooo8g8oooooooo",
"oooooo4gggfyOooOooooOyggg8ooooooo",
"oooooooeggggg7>O.O>8gggggeooooooo",
"ooooooooegggggggggggggggeoooooooo",
"ooooooooo7ggggggggggggg8ooooooooo",
"oooooooooO#eggggggggge#oooooooooo",
"ooooooooooooO35iii53OOOoooooooooo",
"ooooooooooooOoOoOoOOooooooooooooo",
"ooooooooooooOoooooooooooooooooooo",
"ooooooooooooooooooooooooooooooooo",
"ooooooooooooooooooooooooooooooooo"
};
