/* XPM */
static char * roll_xpm[] = {
"33 33 243 2",
"  	c #FBFBFB",
". 	c #FCFCFC",
"+ 	c #FAFAFA",
"@ 	c #F8F8F8",
"# 	c #F9F9F9",
"$ 	c #F2F2F2",
"% 	c #EBEBEB",
"& 	c #E9E9E9",
"* 	c #E5E5E5",
"= 	c #E3E3E3",
"- 	c #E1E1E1",
"; 	c #DFDFDF",
"> 	c #DEDEDE",
", 	c #E0E0E0",
"' 	c #E2E2E2",
") 	c #F1F1F1",
"! 	c #FDFDFD",
"~ 	c #F5F5F5",
"{ 	c #F6F6F6",
"] 	c #E8E8E8",
"^ 	c #EDEDED",
"/ 	c #F7F7F7",
"( 	c #EEEEEE",
"_ 	c #EAEAEA",
": 	c #F3F3F3",
"< 	c #FEFEFE",
"[ 	c #E4E4E4",
"} 	c #DADADA",
"| 	c #CBCBCB",
"1 	c #D4D4D4",
"2 	c #F0F0F0",
"3 	c #F4F4F4",
"4 	c #D3D3D3",
"5 	c #C6C6C6",
"6 	c #BDBDBD",
"7 	c #7B7B7B",
"8 	c #808080",
"9 	c #818181",
"0 	c #838383",
"a 	c #7F7F7F",
"b 	c #929292",
"c 	c #AFAFAF",
"d 	c #DDDDDD",
"e 	c #C4C4C4",
"f 	c #C7C7C7",
"g 	c #B7B7B7",
"h 	c #9A9A9A",
"i 	c #BFBFBF",
"j 	c #B6B6B6",
"k 	c #9B9B9B",
"l 	c #7C7C7C",
"m 	c #656565",
"n 	c #909090",
"o 	c #9C9C9C",
"p 	c #A1A1A1",
"q 	c #BBBBBB",
"r 	c #D8D8D8",
"s 	c #D5D5D5",
"t 	c #C2C2C2",
"u 	c #CDCDCD",
"v 	c #D2D2D2",
"w 	c #8A8A8A",
"x 	c #999999",
"y 	c #C9C9C9",
"z 	c #8C8C8C",
"A 	c #676767",
"B 	c #686868",
"C 	c #939393",
"D 	c #D6D6D6",
"E 	c #DBDBDB",
"F 	c #ECECEC",
"G 	c #ADADAD",
"H 	c #AAAAAA",
"I 	c #C8C8C8",
"J 	c #ACACAC",
"K 	c #C1C1C1",
"L 	c #6F6F6F",
"M 	c #3F3F3F",
"N 	c #585858",
"O 	c #626262",
"P 	c #A6A6A6",
"Q 	c #919191",
"R 	c #616161",
"S 	c #777777",
"T 	c #B8B8B8",
"U 	c #A5A5A5",
"V 	c #5B5B5B",
"W 	c #3E3E3E",
"X 	c #484848",
"Y 	c #7D7D7D",
"Z 	c #B3B3B3",
"` 	c #B9B9B9",
" .	c #A4A4A4",
"..	c #3A3A3A",
"+.	c #2C2C2C",
"@.	c #3D3D3D",
"#.	c #444444",
"$.	c #989898",
"%.	c #BEBEBE",
"&.	c #797979",
"*.	c #767676",
"=.	c #AEAEAE",
"-.	c #5A5A5A",
";.	c #202020",
">.	c #131313",
",.	c #BCBCBC",
"'.	c #5D5D5D",
").	c #2E2E2E",
"!.	c #161616",
"~.	c #1E1E1E",
"{.	c #D9D9D9",
"].	c #D0D0D0",
"^.	c #D1D1D1",
"/.	c #7E7E7E",
"(.	c #606060",
"_.	c #747474",
":.	c #868686",
"<.	c #C3C3C3",
"[.	c #828282",
"}.	c #0F0F0F",
"|.	c #848484",
"1.	c #525252",
"2.	c #151515",
"3.	c #060606",
"4.	c #070707",
"5.	c #171717",
"6.	c #CACACA",
"7.	c #C0C0C0",
"8.	c #A2A2A2",
"9.	c #858585",
"0.	c #2D2D2D",
"a.	c #CFCFCF",
"b.	c #CCCCCC",
"c.	c #CECECE",
"d.	c #6B6B6B",
"e.	c #1C1C1C",
"f.	c #141414",
"g.	c #A3A3A3",
"h.	c #BABABA",
"i.	c #393939",
"j.	c #080808",
"k.	c #2A2A2A",
"l.	c #696969",
"m.	c #B2B2B2",
"n.	c #717171",
"o.	c #101010",
"p.	c #2F2F2F",
"q.	c #7A7A7A",
"r.	c #A8A8A8",
"s.	c #8D8D8D",
"t.	c #4A4A4A",
"u.	c #565656",
"v.	c #B1B1B1",
"w.	c #A7A7A7",
"x.	c #292929",
"y.	c #8F8F8F",
"z.	c #ABABAB",
"A.	c #9E9E9E",
"B.	c #707070",
"C.	c #4B4B4B",
"D.	c #1A1A1A",
"E.	c #C5C5C5",
"F.	c #949494",
"G.	c #888888",
"H.	c #2B2B2B",
"I.	c #969696",
"J.	c #494949",
"K.	c #272727",
"L.	c #242424",
"M.	c #9D9D9D",
"N.	c #B0B0B0",
"O.	c #6E6E6E",
"P.	c #4E4E4E",
"Q.	c #1D1D1D",
"R.	c #020202",
"S.	c #959595",
"T.	c #757575",
"U.	c #212121",
"V.	c #898989",
"W.	c #535353",
"X.	c #979797",
"Y.	c #6A6A6A",
"Z.	c #414141",
"`.	c #232323",
" +	c #0A0A0A",
".+	c #9F9F9F",
"++	c #373737",
"@+	c #A0A0A0",
"#+	c #000000",
"$+	c #343434",
"%+	c #878787",
"&+	c #6D6D6D",
"*+	c #5E5E5E",
"=+	c #0C0C0C",
"-+	c #090909",
";+	c #303030",
">+	c #383838",
",+	c #262626",
"'+	c #0B0B0B",
")+	c #010101",
"!+	c #0D0D0D",
"~+	c #727272",
"{+	c #1F1F1F",
"]+	c #040404",
"^+	c #121212",
"/+	c #181818",
"(+	c #030303",
"_+	c #B4B4B4",
":+	c #A9A9A9",
"<+	c #363636",
"[+	c #111111",
"}+	c #313131",
"|+	c #4F4F4F",
"1+	c #424242",
"2+	c #404040",
"3+	c #323232",
"4+	c #5F5F5F",
"5+	c #5C5C5C",
"6+	c #050505",
"7+	c #434343",
"8+	c #505050",
"9+	c #B5B5B5",
"0+	c #4D4D4D",
"a+	c #8B8B8B",
"b+	c #3C3C3C",
"c+	c #737373",
"d+	c #4C4C4C",
"e+	c #575757",
"f+	c #555555",
"g+	c #0E0E0E",
"h+	c #636363",
"i+	c #8E8E8E",
"j+	c #252525",
"k+	c #474747",
"l+	c #454545",
"m+	c #1B1B1B",
"n+	c #191919",
"o+	c #646464",
"p+	c #333333",
"q+	c #666666",
"r+	c #E7E7E7",
"s+	c #787878",
"t+	c #D7D7D7",
"  . . + @ #     # $ % & * = - ; > - , ; - ; ' = * & ) @ !   . ~ { ",
"  .   .     . ! .   # + + $ ] * ^ ) ) @ / ) ( ] ] _ : + . .   / { ",
"+ . . . ! .   . . < < # * - ; [ [ } | 1 2 3 ! + / ) : . . .   { 2 ",
"  ! . ! !   ! . + _ > 4 5 6 7 8 9 0 a b c 6 d +       + !     ~ ( ",
"! . !   ! < # ^ > 4 e e f g h i j k l m n o p q r s ; 3 @ !   / $ ",
"!   ! < < 3 [ } | t f u v c w x q y e x z A B C b D E = d F < ! + ",
"  ! + > G o H I J K 4 x L M N 9 O J c P q Q R b S H s [ } t - < . ",
"! % T U V W X Y Z `  .N ..+.@.#.9 $.` K %.t 7 &.*.n =.s r u e 2 . ",
"* i  .-.;.>.C ,.p R '.).!.~.;.N k i {.].^.` /.(._.:.K <.4 K y s ~ ",
"c g [.).}.@.s 6 |.1.+.2.3.4.5.9 ,., - 6.7.8.9.0.V S a.b.{.5 J c.[ ",
"Z  .d.e.f.g.h.o Y i.j.k.l.G E ; {.v u m.[.Y n.o.p.q.D ].f r.s.K 1 ",
"q h t.2.u.T v.w.(.x.+.y.z.g K i T =.A.:.a B.C.3.D.n ^.E.%.F.9.%.b.",
"%.G.H.!.V T j I.J.K.L.p A.M.=.Z N.N.F.G.O.P.Q.R.+.S.1 u w.9.:.c %.",
"q T.U.2.J.J Z ,.V.X D.W.b y.z s.F.X.9 Y.Z.`.4. +-.u ^.I .+Y a A.X.",
"j 9.L.5.++@+Z r.y.H.#+$+%+w Q l &+*+M H.2.=+-+x.k 4 K g |.O.7 s.x ",
"c [.5.>.;+G.@+g.z.|.>.j.X n /.A >+,+2.'+-+)+..S.a.E.<.h n.L l F.c ",
"e x L.!+0.~+M.A.=.Q /.{+]+^+/+>.o.=+3.(+=+L e 4 q _+h 9 T.d.a x :+",
"z.v.<+[+}+|+Q F.h G 8 7 W.1+2+..Z.3+M /._+b.c.t :+S.[.4+5+P.A w v.",
"v.h.R 6+}+K.w G.X.C y.I.o g.T =.c e f I 6 e _+H :+S.A 7+8+x.R G.h ",
"c 9+r.2./+p.0+&.a+M..+x w.Z j 7.6.^.T w.g.H $..+s.*.8+#.b+!.(.=.@+",
"P N.,.q. +^+}.>+5+&.8.=.%.i 9+:+Z <.m.$.$.X.[.c+*+d+8+7+D.x.*.z Y ",
"X.U :+Z O >.[+=+K.7+m T.8 %+Q z l g.=.y.l Y.e+|+8+t.W L.!.e+7 S S.",
"w M.v.h.| f+g+3.o.e.e.3+i.>+M 5+O.x *.(.B N 8+W }+K.[+^+P.h+i+o K ",
"l G. .r.i ' O }.g+-+!+f./+U.j+<+k+#.7+k+d+t.i.,+D.'+}.0.*+w n f q ",
"Y |.9.F.r.u u l+[+6+4.j.e.D.2.!+f.m+K.+.x.n+>.'+'+Q.2+o+|.w.g _+g.",
"|.|.a+s.C o T X.O D.4.4.>.x.X ;+0.@.p++.K.k+W.5+o+S S z w.v.P 8.J ",
"@+V.i+V.z y.@+T q.q+c+(.l.a+:+w.=.r.H T i ; ' ].,.U  .v._+$.h r.u ",
"8.w.h S.C i+C w.N.` H I.Y Q g _+q 7.6 c., ) @ { $ r+q @+9.[.@+q _ ",
"P G m.J .+S.s.n b w.` ` G 8.v.9 s+y.J j | E [ & s v.N.s.X.p =.{.@ ",
"6 q :+G N.J g.U .+k %+S A.r.A.l /.&.S X.N.h.E.{.; E 4 g.G J a.^ . ",
"Z m.6 Z c c N.c N.U X.%+C n P 8.J A.[.U @+8.:+b.t+D g %.6.y E ~ ! ",
",.w.j %.,.6 T m.Z j g v.=.z._+9+@+h p h.N.G.|.].a.9+I.9+].t =.3   ",
"Z N.g m.r.p J Z v.j ,.i <.7.h.J  .o C n 9.7 Y V..+g.b w.g r.t+!   "};
