/* XPM */
static char * Trash_xpm[] = {
"33 33 351 2",
"  	c None",
". 	c #434343",
"+ 	c #585859",
"@ 	c #7E7F82",
"# 	c #7F7F81",
"$ 	c #C9CAD0",
"% 	c #B3B3BB",
"& 	c #484848",
"* 	c #5A5959",
"= 	c #5D5D5D",
"- 	c #727070",
"; 	c #827F7F",
"> 	c #8E8B8B",
", 	c #959292",
"' 	c #969393",
") 	c #959191",
"! 	c #A3A0A0",
"~ 	c #CECED2",
"{ 	c #E2E2EC",
"] 	c #E5E6F1",
"^ 	c #C6C7D2",
"/ 	c #666566",
"( 	c #585858",
"_ 	c #797777",
": 	c #676464",
"< 	c #525050",
"[ 	c #706E6F",
"} 	c #9F9E9F",
"| 	c #C2C0C3",
"1 	c #B5B3B3",
"2 	c #999696",
"3 	c #D6D7D8",
"4 	c #EEEEF4",
"5 	c #D9D9E2",
"6 	c #BAB9C6",
"7 	c #ECECF2",
"8 	c #CCCDDA",
"9 	c #524F4E",
"0 	c #535151",
"a 	c #757373",
"b 	c #777676",
"c 	c #444444",
"d 	c #999898",
"e 	c #413E3E",
"f 	c #4E4B4D",
"g 	c #5C5A5B",
"h 	c #ABA9B5",
"i 	c #D7D8DC",
"j 	c #EEEDF1",
"k 	c #DCDCE3",
"l 	c #B8B7BF",
"m 	c #D4D3D7",
"n 	c #E4E3E2",
"o 	c #CECACA",
"p 	c #CFCEDB",
"q 	c #FAFCFF",
"r 	c #DFE1E8",
"s 	c #DDDEE6",
"t 	c #B0AFB2",
"u 	c #969495",
"v 	c #524F51",
"w 	c #474545",
"x 	c #ABAAAA",
"y 	c #6B6B6B",
"z 	c #616061",
"A 	c #F1F1F5",
"B 	c #CFCFD0",
"C 	c #939299",
"D 	c #C1C1CB",
"E 	c #CAC9D5",
"F 	c #CAC8D4",
"G 	c #CBCBD4",
"H 	c #CACACE",
"I 	c #B2B1BB",
"J 	c #D9D8D7",
"K 	c #CBCBD1",
"L 	c #EFEFF0",
"M 	c #EDEEF2",
"N 	c #C6C5CD",
"O 	c #BBBBBE",
"P 	c #E5E6EE",
"Q 	c #9F9FA4",
"R 	c #717070",
"S 	c #6A6A6A",
"T 	c #646464",
"U 	c #6F6F6F",
"V 	c #929292",
"W 	c #D5D5D5",
"X 	c #C3C2C1",
"Y 	c #D4D3D3",
"Z 	c #8B888B",
"` 	c #DDDDDE",
" .	c #C1BDBD",
"..	c #DFDEDE",
"+.	c #CAC9CD",
"@.	c #E6E6E7",
"#.	c #E0E0E2",
"$.	c #B9B8C1",
"%.	c #878788",
"&.	c #A9A8A8",
"*.	c #B0AFAF",
"=.	c #C3C3C3",
"-.	c #A0A0A0",
";.	c #706F6F",
">.	c #6E6E6E",
",.	c #5F5F5F",
"'.	c #949494",
").	c #B6B6B6",
"!.	c #DADADB",
"~.	c #C6C6C6",
"{.	c #9B9A9A",
"].	c #767676",
"^.	c #636363",
"/.	c #5B5B5B",
"(.	c #545454",
"_.	c #4D4D4D",
":.	c #464646",
"<.	c #434242",
"[.	c #525151",
"}.	c #9E9E9E",
"|.	c #D1D1D1",
"1.	c #C9C9C9",
"2.	c #9D9D9D",
"3.	c #666666",
"4.	c #575757",
"5.	c #B5B6B6",
"6.	c #E3E3E3",
"7.	c #F9F9F9",
"8.	c #FAFAFA",
"9.	c #F9FAFA",
"0.	c #EFEFEF",
"a.	c #D9D9D9",
"b.	c #C7C7C7",
"c.	c #BBBBBB",
"d.	c #B1B1B1",
"e.	c #A9A9A9",
"f.	c #A4A4A4",
"g.	c #A8A8A8",
"h.	c #B0B0B0",
"i.	c #C5C5C5",
"j.	c #989898",
"k.	c #5A5A5A",
"l.	c #4C4C4C",
"m.	c #8D8D8D",
"n.	c #B3B3B3",
"o.	c #E2E2E2",
"p.	c #FBFBFB",
"q.	c #F2F2F2",
"r.	c #DDDDDD",
"s.	c #CACACA",
"t.	c #BDBDBD",
"u.	c #B2B2B2",
"v.	c #A6A6A6",
"w.	c #9F9F9F",
"x.	c #A7A7A7",
"y.	c #BFBFBF",
"z.	c #D6D6D6",
"A.	c #BABABA",
"B.	c #878787",
"C.	c #474747",
"D.	c #4B4B4B",
"E.	c #959494",
"F.	c #908F8F",
"G.	c #DFDFDF",
"H.	c #969696",
"I.	c #EDEEEE",
"J.	c #B2B1B2",
"K.	c #CBCCCC",
"L.	c #BCBCBC",
"M.	c #ABABAB",
"N.	c #848484",
"O.	c #939393",
"P.	c #A5A5A5",
"Q.	c #919191",
"R.	c #D7D7D7",
"S.	c #999999",
"T.	c #969797",
"U.	c #4A4A4A",
"V.	c #858585",
"W.	c #DADBDB",
"X.	c #7A7A7A",
"Y.	c #D1D1D2",
"Z.	c #7D7E7E",
"`.	c #D2D2D3",
" +	c #B8B8B8",
".+	c #7C7C7C",
"++	c #696969",
"@+	c #B9B9B9",
"#+	c #CCCCCC",
"$+	c #CDCDCD",
"%+	c #808080",
"&+	c #989797",
"*+	c #D7D8D7",
"=+	c #7D7D7D",
"-+	c #737373",
";+	c #AEAEAE",
">+	c #7B7B7B",
",+	c #C8C8C8",
"'+	c #CECECE",
")+	c #B7B7B7",
"!+	c #979696",
"~+	c #D4D4D4",
"{+	c #7E7E7E",
"]+	c #CDCCCC",
"^+	c #797979",
"/+	c #747474",
"(+	c #B5B5B5",
"_+	c #D3D3D3",
":+	c #D8D8D8",
"<+	c #D0D0D0",
"[+	c #979797",
"}+	c #D2D2D2",
"|+	c #7F7F7F",
"1+	c #9A9A9A",
"2+	c #C8C7C8",
"3+	c #6C6C6C",
"4+	c #A2A2A2",
"5+	c #777777",
"6+	c #787878",
"7+	c #888888",
"8+	c #ADADAD",
"9+	c #BEBEBE",
"0+	c #CFCFCF",
"a+	c #454545",
"b+	c #959595",
"c+	c #7B7A7A",
"d+	c #D0D1D0",
"e+	c #818181",
"f+	c #C7C6C6",
"g+	c #C2C2C2",
"h+	c #8F8F8F",
"i+	c #565656",
"j+	c #6D6D6D",
"k+	c #545354",
"l+	c #7E7D7D",
"m+	c #828282",
"n+	c #C3C4C4",
"o+	c #868686",
"p+	c #171717",
"q+	c #C0C0C0",
"r+	c #C1C1C1",
"s+	c #848383",
"t+	c #838383",
"u+	c #757575",
"v+	c #494849",
"w+	c #626363",
"x+	c #1C1C1C",
"y+	c #F0F0F0",
"z+	c #ACACAC",
"A+	c #8B8B8B",
"B+	c #898888",
"C+	c #CCCDCC",
"D+	c #BEBDBD",
"E+	c #FAF9FA",
"F+	c #727272",
"G+	c #212121",
"H+	c #505050",
"I+	c #FEFEFE",
"J+	c #E5E5E5",
"K+	c #909090",
"L+	c #CACAC9",
"M+	c #252525",
"N+	c #FFFFFF",
"O+	c #DADADA",
"P+	c #EAEAEA",
"Q+	c #686868",
"R+	c #707070",
"S+	c #2B2B2B",
"T+	c #4E4E4E",
"U+	c #F5F5F5",
"V+	c #B4B4B4",
"W+	c #717171",
"X+	c #E0E0E0",
"Y+	c #ECECEC",
"Z+	c #A09F9F",
"`+	c #C4C4C4",
" @	c #F8F8F7",
".@	c #AAAAAA",
"+@	c #323232",
"@@	c #F7F8F8",
"#@	c #AFAFAF",
"$@	c #8C8C8C",
"%@	c #424242",
"&@	c #373737",
"*@	c #3D3B3B",
"=@	c #555555",
"-@	c #939292",
";@	c #414141",
">@	c #404040",
",@	c #ADACAC",
"'@	c #3C3C3C",
")@	c #3C3B3B",
"!@	c #A6A7A7",
"~@	c #DBDBDB",
"{@	c #3F3F3F",
"]@	c #3D3D3D",
"^@	c #AFAEAE",
"/@	c #A3A3A3",
"(@	c #EEEEEE",
"_@	c #898989",
":@	c #3B3B3B",
"<@	c #393939",
"[@	c #EBEBEB",
"}@	c #3B3A3A",
"|@	c #5C5C5C",
"1@	c #9B9B9B",
"2@	c #3E3E3E",
"3@	c #333333",
"4@	c #595959",
"5@	c #9F9E9E",
"6@	c #E7E7E7",
"7@	c #737272",
"8@	c #616060",
"9@	c #C7C8C7",
"0@	c #C0BFC0",
"a@	c #E6E6E6",
"b@	c #838384",
"c@	c #8F8F8E",
"d@	c #3E3D3D",
"e@	c #606060",
"f@	c #E3E2E3",
"g@	c #CBCBCB",
"h@	c #656565",
"i@	c #484748",
"j@	c #474647",
"k@	c #868587",
"l@	c #4B4A4A",
"m@	c #2F2D2D",
"n@	c #616161",
"o@	c #8A8A8A",
"p@	c #CACBCA",
"q@	c #5E5D5E",
"r@	c #3B393C",
"s@	c #424042",
"t@	c #807F80",
"u@	c #8E8E8E",
"v@	c #3A3939",
"w@	c #343333",
"x@	c #6D6C6D",
"y@	c #3F3F40",
"z@	c #2F2E30",
"A@	c #343334",
"B@	c #313131",
"C@	c #292929",
"D@	c #3A3A3A",
"E@	c #303030",
"F@	c #232323",
"G@	c #4E4D4D",
"H@	c #494949",
"I@	c #343434",
"J@	c #2C2C2C",
". . . . . . . . . . . . . . . . . . + @ . . . . . . . . . . . . . ",
". . . . . . . . . . . . . . . . . # $ % . . . . . . . . . . . . . ",
". . . . . . & * = - ; > , ' ) ! ~ { ] ^ / ( . . . . . . . . . . . ",
". . . . & _ : < [ } | 1 , 2 3 4 5 6 7 8 9 0 a b c . . . . . . . . ",
". . . . d e f g h i j k l m n o p q r s t u v w x . . . . . . . . ",
". . . . y z A B C D E F G H I J K L M N O P Q R S . . . . . . . . ",
". . . . T U V W X Y Z `  ...+.@.#.$.%.&.*.=.-.;.>.. . . . . . . . ",
". . . . ,.'.).!.~.{.].^./.(._.:.<.c [.;.}.|.1.2.3.. . . . . . . . ",
". . . . 4.V 5.6.7.8.9.0.a.b.c.d.e.f.g.h.i.a.=.j.k.. . . . . . . . ",
". . . . l.m.n.o.p.p.p.q.r.s.t.u.v.w.2.x.y.z.A.B.C.. . . . . . . . ",
". . . . D.E.F.G.H.q.p.I.J.K.L.M.N.j.O.P.Q.R.S.T.. . . . . . . . . ",
". . . . U.d V.W.X.Y.p.S.Z.`. +.+++u.V.P.X.g..+ +@+#+$+%+. . . . . ",
". . . . & &+%+*+=+$+p.H.X.|.d.-+S ;+>+-.=+(.,+1.'+a.a.R.)+. . . . ",
". . . . C.!+=+~+{+]+p.j.^+$+x.>.y x./+H.^+(+n.L.~._+:+~+<+-.. . . ",
". . . . :.[+>+}+|+1.p.1+^+2+1+3.3+4+5+6+7+8+;+@+9+#+W <+#+0+T . . ",
". . . . a+b+c+d+e+f+8.2.5+g+h+i+j+d.k.k+H.-.@+).).=.}+$+b.s.s.. . ",
". . . . c V l+0+m+n+9.-.].9+o+D.3.$+p+<.g+q+). +h.)+$+1.r+b.|.y . ",
". . . . . m.s+$+t+q+8.4+u+c.%+v+w+Q.x+C.y+6.9+c.d.z+,+i.c.=.0+u.. ",
". . . . . A+B+C+N.D+E+f./+A.=+& 3.F+G+H+I+q.L.t. +e.t.r+A.q+~+J+. ",
". . . . . 7+K+L+V.A.7.x.-+@+>+& 3.F+M+(.N+8.@+ +@+(+= '+#+g+O+P+>.",
". . . . . t+j.b.A+).7.e.F+@+X.& Q+R+S+T+N+U+u.V+n.V+W+V j.#+X+Y+O.",
". . . . . >+Z+`+V n. @.@W+A.>+C.++U +@. @@J+8+#@#@#@$@u+u.h.X+P+8+",
". . %@%@%@/+v.q+S.(+U+M.W+A.X.C.y R+&@*@<+1.)+e.x.4+1+=@8+-@R.J+L.",
". %@%@;@>@3+,@L.}.).q.M.R+A.X.C.3+R+'@)@g.!@(+2.j.h+m+,.i+ +0+~@9+",
". %@>@{@]@T ^@A./@).(@M.>.A.X.C.>.U {@'@B.X.Q.K+_@%+6+>+4./@u.1.u.",
"%@;@{@:@<@k.^@).g.(+[@z+>.@+X.C.>.j+. }@u+++|@t+.+-+R+>+V w.1@e.1+",
". ;@2@<@3@4@5@V+8+).6@z+j+@+X.:.7@S . 4./+8@. O.W+3+y u+S.w.O.Q.X.",
". . ;@]@+@_.O.u.9@0@a@(+b@@+X._.c@^+{@Q.|+d.d@& ++T 3.W+Q.}.Q.7+e@",
". . . . >@:@S.h.a.a@f@g@n.1+>+h@=+,.i@j@k@#@l@m@W+n@n@j+o@1+O.B.D.",
". . . . . . _.j.~@[@X+p@h.'.>+Q+|@q@r@s@t@u@'@v@w@= /.S t+H.V 5+. ",
". . . . . %@. . _.x@h+-./@'.%+j+|@y@z@A@B@C@S+D@4././.3.=+V '.& . ",
". . . . . . %@%@%@. . . {@:@<@D@'@>@>@]@&@E@C@F@3@4@G@= /+/+H@. . ",
". . . . . . . . . . %@%@%@%@%@. %@. %@. . . >@'@I@J@3@I@'@. . . . "};
